# xmcd
#
# Track frame offsets:
#   150
#   21333
#   40610
#   60559
#   77535
#   98148
#   118908
#   138134
#   158949
#   183393
#   200462
#   216900
#   242611
#   263842
#   283225
#   303175
#   323837
#
# Disc length: 4595 seconds
#
# Revision: 0
# Processed by: cddbd v1.5.2PL0 Copyright (c) Steve Scherf et al.
# Submitted via: uFREEDB ActiveX Control 1.5
#
DISCID=eb11f111
DTITLE=zé marco e adriano - no limite
DYEAR=1900
DGENRE=Country
TTITLE0=no limite
TTITLE1=ah!esse amor
TTITLE2=é Jesus
TTITLE3=só alegria
TTITLE4=a oração
TTITLE5=seu amor é assim
TTITLE6=foi a mão de Deus
TTITLE7=Deus comigo vai
TTITLE8=me compreendas
TTITLE9=Deus do impossível
TTITLE10=o dinheiro
TTITLE11=verso e canção
TTITLE12=play back
TTITLE13=play back
TTITLE14=play back
TTITLE15=play back
TTITLE16=play back
EXTD=
EXTT0=
EXTT1=
EXTT2=
EXTT3=
EXTT4=
EXTT5=
EXTT6=
EXTT7=
EXTT8=
EXTT9=
EXTT10=
EXTT11=
EXTT12=
EXTT13=
EXTT14=
EXTT15=
EXTT16=
PLAYORDER=
